<?xml version="1.0" encoding="UTF-8"?>
<svg width="32px" height="32px" viewBox="0 0 32 32" version="1.1" xmlns="http://www.w3.org/2000/svg">
    <g stroke="none" stroke-width="1" fill="none" fill-rule="evenodd">
        <path d="M16,0 C24.8366,0 32,7.16344 32,16 C32,24.8366 24.8366,32 16,32 C7.16344,32 0,24.8366 0,16 C0,7.16344 7.16344,0 16,0 Z" fill="#D9272E"/>
        <path d="M22.5,8 L9.5,8 C8.67157,8 8,8.67157 8,9.5 L8,22.5 C8,23.3284 8.67157,24 9.5,24 L22.5,24 C23.3284,24 24,23.3284 24,22.5 L24,9.5 C24,8.67157 23.3284,8 22.5,8 Z" fill="#FFFFFF"/>
    </g>
</svg> 